<svg width="119" height="119" viewBox="0 0 119 119" fill="none" xmlns="http://www.w3.org/2000/svg">
<path d="M118.999 56.4866C118.999 60.346 115.813 63.5098 111.927 63.5098H62.6227C58.7367 63.5098 55.5508 60.346 55.5508 56.4866V7.52299C55.5508 3.66381 58.7367 0.5 62.6227 0.5H111.927C115.813 0.5 118.999 3.66381 118.999 7.52299V56.4866Z" fill="#FCFEFF"/>
<path d="M55.0001 119.06C55.0001 122.948 51.7865 126.134 47.8667 126.134H-1.86654C-5.78637 126.134 -9 122.948 -9 119.06V69.7382C-9 65.851 -5.78637 62.6641 -1.86654 62.6641H47.8667C51.7865 62.6641 55.0001 65.851 55.0001 69.7382V119.06Z" fill="#FCFEFF"/>
</svg>
