<svg width="44" height="44" viewBox="0 0 44 44" fill="none" xmlns="http://www.w3.org/2000/svg">
<path d="M31.8897 3.66211H12.109C9.87174 3.66847 7.72793 4.56004 6.14594 6.14203C4.56395 7.72402 3.67238 9.86783 3.66602 12.1051L3.66602 31.8858C3.67238 34.1231 4.56395 36.2669 6.14594 37.8489C7.72793 39.4308 9.87174 40.3224 12.109 40.3288H31.8897C34.127 40.3224 36.2708 39.4308 37.8528 37.8489C39.4348 36.2669 40.3263 34.1231 40.3327 31.8858V12.1051C40.3263 9.86783 39.4348 7.72402 37.8528 6.14203C36.2708 4.56004 34.127 3.66847 31.8897 3.66211ZM29.5281 23.5755H23.9629C23.9201 23.5752 23.8776 23.5834 23.8379 23.5996C23.7983 23.6159 23.7623 23.6399 23.732 23.6702C23.7017 23.7005 23.6777 23.7365 23.6614 23.7761C23.6452 23.8158 23.637 23.8583 23.6373 23.9011V29.4735C23.6373 29.9079 23.4647 30.3245 23.1575 30.6317C22.8504 30.9389 22.4338 31.1115 21.9994 31.1115C21.5649 31.1115 21.1483 30.9389 20.8412 30.6317C20.534 30.3245 20.3614 29.9079 20.3614 29.4735V23.9011C20.3617 23.8583 20.3535 23.8158 20.3373 23.7761C20.321 23.7365 20.297 23.7005 20.2667 23.6702C20.2364 23.6399 20.2004 23.6159 20.1608 23.5996C20.1211 23.5834 20.0786 23.5752 20.0358 23.5755H14.4706C14.2555 23.5755 14.0425 23.5331 13.8438 23.4508C13.6451 23.3685 13.4645 23.2478 13.3124 23.0957C13.1603 22.9437 13.0397 22.7631 12.9574 22.5644C12.875 22.3656 12.8327 22.1526 12.8327 21.9376C12.8327 21.7225 12.875 21.5095 12.9574 21.3107C13.0397 21.112 13.1603 20.9314 13.3124 20.7794C13.4645 20.6273 13.6451 20.5066 13.8438 20.4243C14.0425 20.342 14.2555 20.2996 14.4706 20.2996H20.0358C20.0786 20.2999 20.1211 20.2917 20.1608 20.2755C20.2004 20.2592 20.2364 20.2352 20.2667 20.2049C20.297 20.1746 20.321 20.1386 20.3373 20.099C20.3535 20.0593 20.3617 20.0168 20.3614 19.974V14.4088C20.3614 13.9744 20.534 13.5578 20.8412 13.2506C21.1483 12.9435 21.5649 12.7709 21.9994 12.7709C22.4338 12.7709 22.8504 12.9435 23.1575 13.2506C23.4647 13.5578 23.6373 13.9744 23.6373 14.4088V19.974C23.636 20.0174 23.6435 20.0607 23.6593 20.1012C23.6751 20.1417 23.6989 20.1786 23.7293 20.2097C23.7597 20.2407 23.7961 20.2654 23.8362 20.2821C23.8764 20.2988 23.9195 20.3072 23.9629 20.3068H29.5281C29.9625 20.3068 30.3791 20.4794 30.6863 20.7866C30.9935 21.0938 31.166 21.5104 31.166 21.9448C31.166 22.3792 30.9935 22.7958 30.6863 23.103C30.3791 23.4102 29.9625 23.5827 29.5281 23.5827V23.5755Z" fill="#A7AEBC"/>
</svg>
