<svg width="32" height="33" viewBox="0 0 32 33" fill="none" xmlns="http://www.w3.org/2000/svg">
<path fill-rule="evenodd" clip-rule="evenodd" d="M23.3669 9.92917V11.9736C25.6633 12.6904 27.3366 14.7693 27.3366 17.2524V23.8349C27.3366 26.9089 24.7881 29.4012 21.6462 29.4012H10.3617C7.2184 29.4012 4.66992 26.9089 4.66992 23.8349V17.2524C4.66992 14.7693 6.34452 12.6904 8.63964 11.9736V9.92917C8.65319 5.95421 11.9455 2.7345 15.9829 2.7345C20.0746 2.7345 23.3669 5.95421 23.3669 9.92917ZM16.0105 5.05351C18.7608 5.05351 20.9963 7.23973 20.9963 9.92946V11.6864H11.0111V9.90296C11.0246 7.22648 13.2601 5.05351 16.0105 5.05351ZM17.1894 22.0084C17.1894 22.6576 16.661 23.1744 15.9971 23.1744C15.3468 23.1744 14.8184 22.6576 14.8184 22.0084V19.0669C14.8184 18.4309 15.3468 17.9142 15.9971 17.9142C16.661 17.9142 17.1894 18.4309 17.1894 19.0669V22.0084Z" fill="#007FFF"/>
</svg>
