<svg width="32" height="33" viewBox="0 0 32 33" fill="none" xmlns="http://www.w3.org/2000/svg">
<path d="M23.8908 19.16C23.5455 19.4947 23.3869 19.9786 23.4655 20.4533L24.6507 27.0127C24.7507 27.5687 24.5161 28.1313 24.0508 28.4526C23.5949 28.7859 22.9883 28.8259 22.491 28.5592L16.5863 25.4795C16.381 25.3702 16.153 25.3115 15.9197 25.3049H15.5584C15.4331 25.3235 15.3104 25.3635 15.1984 25.4248L9.29241 28.5192C9.00045 28.6659 8.66982 28.7179 8.34585 28.6659C7.5566 28.5166 7.02999 27.7646 7.15931 26.9714L8.34585 20.4119C8.42451 19.9333 8.26586 19.4467 7.92056 19.1067L3.10642 14.4404C2.7038 14.0498 2.56381 13.4632 2.74779 12.9339C2.92644 12.4059 3.38239 12.0206 3.933 11.934L10.5589 10.9727C11.0629 10.9207 11.5055 10.6141 11.7321 10.1608L14.6518 4.17464C14.7212 4.04131 14.8105 3.91866 14.9185 3.81467L15.0385 3.72134C15.1011 3.65201 15.1731 3.59468 15.2531 3.54802L15.3984 3.49469L15.6251 3.40137H16.1863C16.6876 3.45336 17.1289 3.75334 17.3595 4.2013L20.3179 10.1608C20.5312 10.5968 20.9458 10.8994 21.4244 10.9727L28.0504 11.934C28.6103 12.014 29.0783 12.4006 29.2636 12.9339C29.4382 13.4685 29.2876 14.0551 28.8769 14.4404L23.8908 19.16Z" fill="#007FFF"/>
<path d="M12 18.3217L14.1464 20.4682L19.8791 14.7354" stroke="#F0F7FD" stroke-width="1.99981" stroke-linecap="round" stroke-linejoin="round"/>
</svg>
